# xmcd CD database file
#
# Track frame offsets:
#	150
#	12150
#	21869
#	34472
#	44860
#	57597
#	66769
#	77291
#	91108
#	103086
#	113343
#	125620
#	139613
#	154852
#	168852
#	183485
#	198509
#	213339
#	224141
#	236492
#	246167
#	257021
#	269752
#
# Disc length: 3733 seconds
#
# Revision: 2
# Processed by: cddbd v1.5.2PL0 Copyright (c) Steve Scherf et al.
# Submitted via: CDex 1.77
#
DISCID=500e9317
DTITLE=jim reeves - the intimate jim reeves (1960) tall tales and short tempers (1961)
DYEAR=2014
DGENRE=Country
TTITLE0=dark moon
TTITLE1=oh how i miss you tonight
TTITLE2=take me in your arms and hold me
TTITLE3=i'm getting' better
TTITLE4=almost
TTITLE5=you're free to go
TTITLE6=you're the only good thing (that's happened to me)
TTITLE7=have i stayed away too long
TTITLE8=no one to cry to
TTITLE9=i was just walkin' out the door
TTITLE10=room full of roses
TTITLE11=we could
TTITLE12=the blizzard
TTITLE13=the streets of laredo
TTITLE14=that silver haired daddy of mine
TTITLE15=rodger young
TTITLE16=the fool's paradise
TTITLE17=it's nothin' to me
TTITLE18=the mighty everglades
TTITLE19=danny boy
TTITLE20=the letter edged in black
TTITLE21=the tie that binds
TTITLE22=the wreck of the number nine
EXTD=YEAR: 2014
EXTT0=
EXTT1=
EXTT2=
EXTT3=
EXTT4=
EXTT5=
EXTT6=
EXTT7=
EXTT8=
EXTT9=
EXTT10=
EXTT11=
EXTT12=
EXTT13=
EXTT14=
EXTT15=
EXTT16=
EXTT17=
EXTT18=
EXTT19=
EXTT20=
EXTT21=
EXTT22=
PLAYORDER=
